HIERARCHY
ROOT Hips
{
	OFFSET 0.000000 0.000000 0.000000
	CHANNELS 6 Xposition Yposition Zposition Xrotation Yrotation Zrotation
	JOINT LeftUpLeg_virtual
	{
		OFFSET 0.000000 0.000000 0.000000
		CHANNELS 3 Xrotation Yrotation Zrotation
		JOINT LeftUpLeg
		{
			OFFSET 13.026900 -6.336304 -1.092800
			CHANNELS 3 Xrotation Yrotation Zrotation
			JOINT LeftLeg
			{
				OFFSET 0.524474 -46.096886 9.782700
				CHANNELS 3 Xrotation Yrotation Zrotation
				JOINT LeftFoot
				{
					OFFSET -0.524474 -53.427422 -12.948200
					CHANNELS 3 Xrotation Yrotation Zrotation
					JOINT LeftToeBase
					{
						OFFSET 0.192200 -14.009700 16.364100
						CHANNELS 3 Xrotation Yrotation Zrotation
						JOINT LeftToe_End
						{
							OFFSET -1.784700 -0.561700 9.474800
							CHANNELS 3 Xrotation Yrotation Zrotation
							End Site
							{
								OFFSET 0 0 0
							}
						}
					}
				}
			}
		}
	}
	JOINT RightUpLeg_virtual
	{
		OFFSET 0.000000 0.000000 0.000000
		CHANNELS 3 Xrotation Yrotation Zrotation
		JOINT RightUpLeg
		{
			OFFSET -12.883000 -6.336304 -1.092800
			CHANNELS 3 Xrotation Yrotation Zrotation
			JOINT RightLeg
			{
				OFFSET -0.524587 -46.096825 9.782800
				CHANNELS 3 Xrotation Yrotation Zrotation
				JOINT RightFoot
				{
					OFFSET 0.524587 -53.427383 -12.948300
					CHANNELS 3 Xrotation Yrotation Zrotation
					JOINT RightToeBase
					{
						OFFSET -0.192200 -14.009700 16.364100
						CHANNELS 3 Xrotation Yrotation Zrotation
						JOINT RightToe_End
						{
							OFFSET 1.784700 -0.561700 9.474800
							CHANNELS 3 Xrotation Yrotation Zrotation
							End Site
							{
								OFFSET 0 0 0
							}
						}
					}
				}
			}
		}
	}
	JOINT Spine_virtual
	{
		OFFSET 0.000000 0.000000 0.000000
		CHANNELS 3 Xrotation Yrotation Zrotation
		JOINT Spine
		{
			OFFSET 0.072000 7.257294 -0.789700
			CHANNELS 3 Xrotation Yrotation Zrotation
			JOINT Spine1
			{
				OFFSET 0.000000 12.508769 -0.658067
				CHANNELS 3 Xrotation Yrotation Zrotation
				JOINT Spine1_split
				{
					OFFSET 0.000000 12.508769 -0.658067
					CHANNELS 3 Xrotation Yrotation Zrotation
					JOINT Spine2
					{
						OFFSET 0.000000 12.508769 -0.658067
						CHANNELS 3 Xrotation Yrotation Zrotation
						JOINT Neck_virtual
						{
							OFFSET 0.000000 0.000000 0.000000
							CHANNELS 3 Xrotation Yrotation Zrotation
							JOINT Neck
							{
								OFFSET 0.000000 14.033295 7.520400
								CHANNELS 3 Xrotation Yrotation Zrotation
								JOINT Head
								{
									OFFSET 0.000000 8.198502 5.703100
									CHANNELS 3 Xrotation Yrotation Zrotation
									JOINT HeadTop_End
									{
										OFFSET 0.000000 17.760803 13.332701
										CHANNELS 3 Xrotation Yrotation Zrotation
										End Site
										{
											OFFSET 0 0 0
										}
									}
								}
							}
						}
						JOINT LeftShoulder_virtual
						{
							OFFSET 0.000000 0.000000 0.000000
							CHANNELS 3 Xrotation Yrotation Zrotation
							JOINT LeftShoulder
							{
								OFFSET 6.292450 5.785301 -0.669000
								CHANNELS 3 Xrotation Yrotation Zrotation
								JOINT LeftShoulder_split
								{
									OFFSET 6.292450 5.785301 -0.669000
									CHANNELS 3 Xrotation Yrotation Zrotation
									JOINT LeftArm
									{
										OFFSET 13.907140 -6.093903 1.965100
										CHANNELS 3 Xrotation Yrotation Zrotation
										JOINT LeftForeArm
										{
											OFFSET 34.140198 0.000000 0.000000
											CHANNELS 3 Xrotation Yrotation Zrotation
											JOINT LeftHand
											{
												OFFSET 40.960209 0.000000 0.000000
												CHANNELS 3 Xrotation Yrotation Zrotation
												End Site
												{
													OFFSET 0 0 0
												}
											}
										}
									}
								}
							}
						}
						JOINT RightShoulder_virtual
						{
							OFFSET 0.000000 0.000000 0.000000
							CHANNELS 3 Xrotation Yrotation Zrotation
							JOINT RightShoulder
							{
								OFFSET -6.292450 5.785301 -0.669000
								CHANNELS 3 Xrotation Yrotation Zrotation
								JOINT RightShoulder_split
								{
									OFFSET -6.292450 5.785301 -0.669000
									CHANNELS 3 Xrotation Yrotation Zrotation
									JOINT RightArm
									{
										OFFSET -13.907140 -6.093903 1.965100
										CHANNELS 3 Xrotation Yrotation Zrotation
										JOINT RightForeArm
										{
											OFFSET -34.140198 0.000000 0.000000
											CHANNELS 3 Xrotation Yrotation Zrotation
											JOINT RightHand
											{
												OFFSET -40.960209 0.000000 0.000000
												CHANNELS 3 Xrotation Yrotation Zrotation
												End Site
												{
													OFFSET 0 0 0
												}
											}
										}
									}
								}
							}
						}
					}
				}
			}
		}
	}
}
MOTION
Frames: 11
Frame Time: 0.03333333
0.042227 97.773651 -0.641376 0.000000 0.000000 0.000000 -14.106038 4.502983 -0.369421 -20.766627 -3.180763 14.889799 56.529217 -0.553846 0.265981 -21.126274 -1.337592 -12.587187 -0.000107 -0.000006 0.000002 0.000000 0.000000 0.000000 -14.106038 4.502983 -0.369421 -16.919164 -8.830507 -16.722542 56.151989 0.213801 -0.369143 -23.940899 -3.841539 11.514616 -0.000023 -0.000000 0.000002 0.000000 0.000000 0.000000 -14.106038 4.502983 -0.369421 20.019266 0.028354 0.839310 6.967088 -0.338070 0.675294 0.000000 0.000000 0.000000 0.000000 0.000000 0.000000 6.967314 -0.337864 0.674353 -12.249458 -1.248218 -0.495995 -16.116724 -1.754206 -0.002254 0.000000 0.000000 0.000000 6.967314 -0.337864 0.674353 3.082220 -9.945122 -6.811322 0.000000 0.000000 0.000000 -13.959275 -7.908211 -60.295250 69.634270 -63.509107 71.597069 0.000000 0.000000 0.000000 6.967314 -0.337864 0.674353 8.709546 -2.418523 18.823153 0.000000 0.000000 0.000000 -21.494484 12.934334 56.855499 76.344098 65.516964 -70.724539 0.000000 0.000000 0.000000 
0.068981 97.758850 -0.647610 0.000000 0.000000 0.000000 -14.048195 4.549554 -0.402501 -20.888503 -3.152432 14.915106 56.577503 -0.684352 0.266643 -21.129870 -1.304982 -12.500263 -0.000107 -0.000006 0.000002 0.000000 0.000000 0.000000 -14.048195 4.549554 -0.402501 -16.976020 -8.860601 -16.714738 56.155551 0.216852 -0.368810 -23.935281 -3.859496 11.529533 -0.000023 0.000002 0.000002 0.000000 0.000000 0.000000 -14.048195 4.549554 -0.402501 20.019273 0.029492 0.846286 6.967762 -0.333987 0.674075 0.000000 0.000000 0.000000 0.000000 0.000000 0.000000 6.967983 -0.333704 0.672075 -12.339813 -1.259016 -0.511592 -16.061070 -1.772782 0.024099 0.000000 0.000000 0.000000 6.967983 -0.333704 0.672075 3.081505 -9.932727 -6.899787 0.000000 0.000000 0.000000 -13.772144 -8.303073 -59.856602 69.210512 -63.491212 71.193644 0.000000 0.000000 0.000000 6.967983 -0.333704 0.672075 8.739782 -2.465331 18.929302 0.000000 0.000000 0.000000 -21.199620 13.256770 56.475586 76.163979 65.580355 -70.597409 0.000000 0.000000 0.000000 
0.124391 97.762489 -0.610321 0.000000 0.000000 0.000000 -14.042988 4.652896 -0.403896 -20.905379 -3.198823 14.864365 56.601539 -0.716526 0.266632 -21.154918 -1.308676 -12.446896 -0.000107 -0.000005 0.000002 0.000000 0.000000 0.000000 -14.042988 4.652896 -0.403896 -16.917065 -8.936053 -16.763214 56.114765 0.213225 -0.368506 -23.948921 -3.876043 11.578064 -0.000023 -0.000000 0.000002 0.000000 0.000000 0.000000 -14.042988 4.652896 -0.403896 20.021668 0.030408 0.848491 6.977816 -0.325596 0.664433 0.000000 0.000000 0.000000 0.000000 0.000000 0.000000 6.978042 -0.325380 0.661028 -12.616692 -1.310841 -0.527832 -15.787572 -1.817843 0.025407 0.000000 0.000000 0.000000 6.978042 -0.325380 0.661028 3.089949 -9.968827 -6.840615 0.000000 0.000000 0.000000 -13.142225 -9.459943 -58.568654 68.458494 -63.706226 70.544659 0.000000 0.000000 0.000000 6.978042 -0.325380 0.661028 8.761114 -2.565048 18.941633 0.000000 0.000000 0.000000 -20.443543 13.957702 55.550782 76.088758 65.933810 -70.542925 0.000000 0.000000 0.000000 
0.178645 97.816177 -0.521915 0.000000 0.000000 0.000000 -14.073279 4.825144 -0.383364 -20.802888 -3.319099 14.760572 56.540671 -0.693709 0.266438 -21.174792 -1.323781 -12.422414 -0.000107 -0.000006 0.000002 0.000000 0.000000 0.000000 -14.073279 4.825144 -0.383364 -16.715017 -9.058527 -16.808146 55.980937 0.216950 -0.366707 -23.972566 -3.949773 11.625723 -0.000023 0.000002 0.000002 0.000000 0.000000 0.000000 -14.073279 4.825144 -0.383364 20.021310 0.046317 0.854385 6.979989 -0.290166 0.652439 0.000000 0.000000 0.000000 0.000000 0.000000 0.000000 6.980287 -0.290651 0.647076 -12.655371 -1.453474 -0.540543 -15.752947 -1.939057 -0.008744 0.000000 0.000000 0.000000 6.980287 -0.290651 0.647076 3.065987 -10.097435 -6.449462 0.000000 0.000000 0.000000 -11.567991 -11.730443 -55.979418 65.753200 -64.570450 67.823007 0.000000 0.000000 0.000000 6.980287 -0.290651 0.647076 8.764863 -2.748730 18.669183 0.000000 0.000000 0.000000 -18.578791 14.943819 53.540658 75.831328 67.486818 -70.381630 0.000000 0.000000 0.000000 
0.225720 98.058533 -0.392666 0.000000 0.000000 0.000000 -14.274808 5.097953 -0.382980 -20.337185 -3.466726 14.666271 56.177316 -0.690151 0.264775 -21.096865 -1.343408 -12.374524 -0.000107 -0.000005 0.000002 0.000000 0.000000 0.000000 -14.274808 5.097953 -0.382980 -16.079604 -9.316848 -16.750096 55.494228 0.218372 -0.360401 -23.900123 -4.086552 11.648641 -0.000023 0.000002 0.000002 0.000000 0.000000 0.000000 -14.274808 5.097953 -0.382980 19.988400 0.075569 0.888771 6.936910 -0.235936 0.669645 0.000000 0.000000 0.000000 0.000000 0.000000 0.000000 6.937388 -0.235862 0.665620 -11.466844 -1.570873 -0.513835 -15.976736 -2.044569 -0.234301 0.000000 0.000000 0.000000 6.937388 -0.235862 0.665620 2.902706 -10.588567 -5.829103 0.000000 0.000000 0.000000 -8.209359 -14.344536 -51.118147 60.161413 -67.419896 62.302452 0.000000 0.000000 0.000000 6.937388 -0.235862 0.665620 8.526235 -2.817775 17.544565 0.000000 0.000000 0.000000 -14.887932 15.974353 49.852376 73.639985 71.996737 -68.447805 0.000000 0.000000 0.000000 
0.282685 98.550148 -0.220676 0.000000 0.000000 0.000000 -14.669518 5.483754 -0.414245 -19.420533 -3.675355 14.563592 55.417399 -0.681929 0.261161 -20.885387 -1.343291 -12.299449 -0.000107 -0.000006 0.000002 0.000000 0.000000 0.000000 -14.669518 5.483754 -0.414245 -14.918735 -9.745383 -16.561672 54.529672 0.228657 -0.347336 -23.675876 -4.293377 11.642256 -0.000023 -0.000000 0.000002 0.000000 0.000000 0.000000 -14.669518 5.483754 -0.414245 19.884132 0.094392 0.954322 6.762317 -0.208085 0.726400 0.000000 0.000000 0.000000 0.000000 0.000000 0.000000 6.762807 -0.207267 0.722387 -8.087588 -1.515193 -0.417978 -16.169498 -1.934590 -0.904639 0.000000 0.000000 0.000000 6.762807 -0.207267 0.722387 2.544756 -11.924333 -5.012377 0.000000 0.000000 0.000000 -2.210830 -15.470080 -43.103142 47.070467 -73.606886 48.902969 0.000000 0.000000 0.000000 6.762807 -0.207267 0.722387 7.952832 -2.678386 15.451568 0.000000 0.000000 0.000000 -8.812175 16.564512 44.063439 59.994203 80.820863 -55.277462 0.000000 0.000000 0.000000 
0.363774 99.234779 -0.036091 0.000000 0.000000 0.000000 -15.342854 5.841876 -0.329532 -17.984680 -3.798368 14.335017 54.295441 -0.677599 0.254380 -20.556448 -1.272866 -12.172142 -0.000107 -0.000006 0.000002 0.000000 0.000000 0.000000 -15.342854 5.841876 -0.329532 -13.297563 -10.198370 -16.424622 53.228996 0.234156 -0.331342 -23.320195 -4.467388 11.644068 -0.000023 -0.000000 0.000002 0.000000 0.000000 0.000000 -15.342854 5.841876 -0.329532 19.739124 0.054849 0.970266 6.523788 -0.266739 0.705519 0.000000 0.000000 0.000000 0.000000 0.000000 0.000000 6.524139 -0.265468 0.701689 -1.975886 -1.172918 -0.246146 -16.073942 -1.700064 -1.336792 0.000000 0.000000 0.000000 6.524139 -0.265468 0.701689 2.323320 -14.299134 -2.361532 0.000000 0.000000 0.000000 6.130121 -14.113485 -33.140788 11.653751 -80.877732 14.007016 0.000000 0.000000 0.000000 6.524139 -0.265468 0.701689 7.070592 -1.706413 12.722751 0.000000 0.000000 0.000000 -0.042601 15.921712 36.053393 -31.250871 84.371059 33.933568 0.000000 0.000000 0.000000 
0.474911 99.980690 0.078754 0.000000 0.000000 0.000000 -16.117602 6.072947 -0.213529 -16.396226 -3.787777 14.096763 53.044564 -0.670664 0.245998 -20.149912 -1.184568 -12.006975 -0.000107 -0.000006 0.000002 0.000000 0.000000 0.000000 -16.117602 6.072947 -0.213529 -11.596877 -10.575588 -16.303445 51.815307 0.241431 -0.314599 -22.842973 -4.575422 11.649128 -0.000023 0.000002 0.000002 0.000000 0.000000 0.000000 -16.117602 6.072947 -0.213529 19.613768 0.001053 0.993915 6.323402 -0.359374 0.710414 0.000000 0.000000 0.000000 0.000000 0.000000 0.000000 6.323558 -0.358358 0.704580 5.816116 -0.692038 -0.627369 -15.471135 -1.789207 -1.169800 0.000000 0.000000 0.000000 6.323558 -0.358358 0.704580 2.348026 -16.095867 -0.102433 0.000000 0.000000 0.000000 14.210588 -11.452614 -22.185358 -41.636755 -81.910484 -37.410275 0.000000 0.000000 0.000000 6.323558 -0.358358 0.704580 6.015276 -0.457010 8.798363 0.000000 0.000000 0.000000 6.243614 13.137240 28.857341 -60.331696 79.251566 59.538206 0.000000 0.000000 0.000000 
0.598086 100.615585 0.052231 0.000000 0.000000 0.000000 -16.309684 6.049461 -0.085784 -15.576209 -3.572312 13.822112 51.936998 -0.675961 0.237269 -19.690793 -1.069117 -11.815715 -0.000107 -0.000005 0.000002 0.000000 0.000000 0.000000 -16.309684 6.049461 -0.085784 -10.819092 -10.636114 -16.279711 50.677794 0.205785 -0.303029 -22.304437 -4.601440 11.674108 -0.000023 -0.000000 0.000002 0.000000 0.000000 0.000000 -16.309684 6.049461 -0.085784 19.597305 -0.044151 1.004229 6.300500 -0.453083 0.738547 0.000000 0.000000 0.000000 0.000000 0.000000 0.000000 6.300514 -0.449143 0.738290 13.660341 -0.131556 -2.007427 -14.260936 -1.993179 -0.439744 0.000000 0.000000 0.000000 6.300514 -0.449143 0.738290 2.497440 -16.169464 2.638147 0.000000 0.000000 0.000000 15.827019 -8.799883 -14.201474 -66.544040 -80.190109 -60.276023 0.000000 0.000000 0.000000 6.300514 -0.449143 0.738290 5.044803 0.429332 4.193591 0.000000 0.000000 0.000000 5.301173 9.627132 24.706090 -63.079591 76.690238 61.272691 0.000000 0.000000 0.000000 
0.743766 100.835121 -0.255795 0.000000 0.000000 0.000000 -16.214043 5.835972 0.050111 -15.630615 -3.284263 13.540433 51.534119 -0.689993 0.232248 -19.336740 -0.976628 -11.623758 -0.000107 -0.000006 0.000002 0.000000 0.000000 0.000000 -16.214043 5.835972 0.050111 -11.055492 -10.462115 -16.493865 50.358899 0.254281 -0.301748 -21.887406 -4.519769 11.688961 -0.000023 0.000002 0.000002 0.000000 0.000000 0.000000 -16.214043 5.835972 0.050111 19.684057 -0.066955 1.020685 6.446119 -0.527411 0.786772 0.000000 0.000000 0.000000 0.000000 0.000000 0.000000 6.446110 -0.523054 0.781551 20.985772 0.283636 -3.640926 -12.459658 -2.078897 0.031972 0.000000 0.000000 0.000000 6.446110 -0.523054 0.781551 2.741041 -15.317090 5.103407 0.000000 0.000000 0.000000 13.322182 -6.254847 -9.060208 -76.667480 -79.663297 -69.412918 0.000000 0.000000 0.000000 6.446110 -0.523054 0.781551 4.233654 0.674754 1.537595 0.000000 0.000000 0.000000 -5.733658 7.868439 22.608121 -63.247996 75.903168 62.825275 0.000000 0.000000 0.000000 
0.911047 100.541389 -0.855457 0.000000 0.000000 0.000000 -15.401030 5.540620 0.172992 -17.179058 -2.939882 13.282484 52.021948 -0.694035 0.232355 -19.106583 -1.060148 -11.442958 -0.000107 -0.000005 0.000002 0.000000 0.000000 0.000000 -15.401030 5.540620 0.172992 -12.843787 -10.051724 -16.998739 51.041512 0.203001 -0.314334 -21.641193 -4.209786 11.797032 -0.000023 0.000003 0.000002 0.000000 0.000000 0.000000 -15.401030 5.540620 0.172992 19.908425 -0.054954 1.052781 6.822256 -0.561093 0.849796 0.000000 0.000000 0.000000 0.000000 0.000000 0.000000 6.822506 -0.556172 0.845185 27.820370 0.472754 -4.572352 -10.217771 -1.975253 -0.530151 0.000000 0.000000 0.000000 6.822506 -0.556172 0.845185 2.731959 -14.613752 5.473878 0.000000 0.000000 0.000000 6.306158 -3.363043 -5.417889 -87.842202 -79.588178 -80.506135 0.000000 0.000000 0.000000 6.822506 -0.556172 0.845185 4.055965 0.572750 1.455998 0.000000 0.000000 0.000000 -24.010961 8.214916 21.533215 -66.317455 75.301709 71.374678 0.000000 0.000000 0.000000 
